<?xml version="1.0" encoding="UTF-8" standalone="no"?>
<svg
   xmlns:dc="http://purl.org/dc/elements/1.1/"
   xmlns:cc="http://creativecommons.org/ns#"
   xmlns:rdf="http://www.w3.org/1999/02/22-rdf-syntax-ns#"
   xmlns:svg="http://www.w3.org/2000/svg"
   xmlns="http://www.w3.org/2000/svg"
   viewBox="0 0 236.23393 399.77051"
   height="399.77051"
   width="236.23393"
   xml:space="preserve"
   id="svg2"
   version="1.1"><metadata
     id="metadata8"><rdf:RDF><cc:Work
         rdf:about=""><dc:format>image/svg+xml</dc:format><dc:type
           rdf:resource="http://purl.org/dc/dcmitype/StillImage" /><dc:title></dc:title></cc:Work></rdf:RDF></metadata><defs
     id="defs6"><clipPath
       id="clipPath48"
       clipPathUnits="userSpaceOnUse"><path
         id="path46"
         d="M 0,0 H 220.05 V 372.383 H 0 Z" /></clipPath></defs><g
     transform="matrix(1.3333333,0,0,-1.3333333,-313.51199,615.23718)"
     id="g10"><g
       transform="translate(235.134,161.6)"
       id="g38"><g
         transform="scale(0.80516)"
         id="g40"><g
           id="g42"><g
             id="g44" /><g
             id="g86"><g
               id="g84"
               clip-path="url(#clipPath48)"><g
                 id="g82"
                 transform="matrix(1,0,0,-1,0,372.383)"><g
                   id="g80"><path
                     id="path50"
                     style="fill:#ffffff;fill-opacity:1;fill-rule:nonzero;stroke:none"
                     d="M 0,0 H 221 V 373 H 0 Z" /><g
                     id="g54"
                     transform="scale(1,-1)"><path
                       id="path52"
                       style="fill:none;stroke:#000000;stroke-width:0.66468698;stroke-linecap:round;stroke-linejoin:round;stroke-miterlimit:10;stroke-dasharray:none;stroke-opacity:1"
                       d="m 29.508,-81.273 -0.938,-0.188 m 1.875,0.375 -0.093,-0.094 m 1.125,0.188 h -0.094 m 1.125,0.187 H 32.32 m 1.125,0.094 h -0.093 m 1.125,0.188 h -0.188 m 1.125,0.187 -0.094,-0.094 m 1.125,0.188 h -0.187 m 1.125,0.187 h -0.094 m 1.125,0.188 -0.187,-0.094 m 1.125,0.188 h -0.094 m 1.125,0.187 h -0.188 m 1.125,0.094 h -0.093 m 1.125,0.187 h -0.094 m 88.5,13.688 -63.938,-9.938 m 0,-8.531 65.25,10.125 M 43.008,-87.742 h 0.094 m -1.125,-0.188 0.187,0.094 m -1.125,-0.187 h 0.094 m -1.125,-0.188 h 0.187 m -1.125,-0.094 h 0.094 m -1.125,-0.187 h 0.188 m -1.125,-0.188 0.093,0.094 m -1.125,-0.187 h 0.188 m -1.125,-0.188 h 0.094 m -1.125,-0.187 0.187,0.093 m -1.125,-0.187 h 0.094 m -1.125,-0.188 h 0.094 m -1.032,-0.093 h 0.094 m -1.406,-0.282 0.375,0.094 m 74.062,22.594 0.188,-1.688 m 1.5,-10.125 0.469,-1.593 m -64.032,1.218 h 0.563 l 0.844,-0.187 0.843,-0.563 0.657,-0.843 0.468,-1.032 0.282,-1.218 v -1.219 l -0.188,-1.031 -0.469,-1.032 -0.562,-0.656 -0.75,-0.469 -0.75,-0.093 m -5.625,9.375 5.437,3.468 m 0,0 5.344,-5.156 m 0,0 v -8.719 m 0,0 -5.437,-3.375 m 0,0 -3.938,3.657 m -1.406,8.343 v 1.782 m 15.562,-0.938 -4.781,-0.75 m 4.781,0.75 -0.093,-8.719 m 0,0 -4.688,-0.75 m -0.656,14.625 -4.688,-0.75 m 4.688,0.75 5.437,-5.156 m -0.093,-8.719 -5.438,-3.468 m 0,0 -4.687,-0.657 m 88.968,18.094 0.563,0.188 0.75,0.468 0.562,0.844 0.375,1.031 0.094,1.125 -0.094,1.219 -0.375,1.125 -0.562,0.938 -0.656,0.75 -0.844,0.562 -0.844,0.094 h -0.281 m -100.594,-16.125 1.031,-0.938 0.844,-1.312 0.375,-1.594 -0.094,-1.594 -0.468,-1.406 -0.844,-0.844 -0.75,-0.187 m -0.75,8.25 0.375,0.094 1.219,-0.282 1.125,-0.937 0.75,-1.406 0.468,-1.594 -0.093,-1.594 -0.469,-1.312 -0.844,-0.844 -0.75,-0.188 m -0.75,8.25 0.375,0.094 1.219,-0.375 1.031,-0.937 0.844,-1.313 0.375,-1.594 -0.094,-1.593 -0.469,-1.313 -0.843,-0.937 -0.75,-0.188 m -0.75,8.25 0.375,0.094 1.218,-0.281 1.125,-0.938 0.75,-1.406 0.469,-1.594 -0.094,-1.594 -0.468,-1.312 -0.844,-0.844 -0.75,-0.187 m -0.75,8.25 0.375,0.093 1.219,-0.281 1.031,-0.937 0.844,-1.407 0.375,-1.593 -0.094,-1.594 -0.469,-1.313 -0.844,-0.937 -0.75,-0.188 m -0.75,8.344 0.375,0.094 1.219,-0.375 1.125,-0.938 0.75,-1.312 0.469,-1.594 -0.094,-1.594 -0.469,-1.406 -0.843,-0.844 -0.75,-0.187 m -0.75,8.25 0.375,0.094 1.218,-0.282 1.032,-0.937 0.843,-1.406 0.375,-1.594 v -1.594 l -0.562,-1.312 -0.844,-0.844 -0.75,-0.188 m -0.75,8.25 0.375,0.094 1.219,-0.375 1.125,-0.844 0.844,-1.406 0.375,-1.594 -0.094,-1.593 -0.469,-1.313 -0.844,-0.937 -0.75,-0.188 m -0.75,8.344 0.375,0.094 1.219,-0.375 1.125,-0.938 0.75,-1.312 0.375,-1.594 v -1.594 l -0.562,-1.406 -0.844,-0.844 -0.656,-0.187 m -0.844,8.25 0.375,0.093 1.219,-0.281 1.125,-0.937 0.843,-1.407 0.375,-1.593 -0.093,-1.594 -0.469,-1.313 -0.844,-0.843 -0.75,-0.188 m -0.75,8.25 0.375,0.094 1.219,-0.375 1.125,-0.938 0.75,-1.312 0.375,-1.594 v -1.594 l -0.563,-1.312 -0.843,-0.938 -0.657,-0.187 m -0.843,8.25 0.375,0.094 1.218,-0.282 1.125,-0.937 0.844,-1.406 0.375,-1.594 -0.094,-1.594 -0.468,-1.312 -0.844,-0.844 -0.75,-0.188 m -0.75,8.25 0.375,0.094 1.219,-0.281 1.125,-0.938 0.75,-1.406 0.375,-1.594 v -1.593 l -0.563,-1.313 -0.844,-0.937 -0.656,-0.188 m -0.844,8.344 0.375,0.094 1.313,-0.375 1.031,-0.938 0.844,-1.312 0.375,-1.594 -0.094,-1.594 -0.469,-1.406 -0.843,-0.844 -0.75,-0.187 m -0.75,8.25 0.375,0.093 1.218,-0.281 1.125,-0.937 0.563,-1.032 m -14.625,-0.093 1.125,-0.844 0.75,-1.406 0.375,-1.594 v -1.594 l -0.563,-1.312 -0.843,-0.938 -1.032,-0.281 -0.187,0.094 m -0.563,8.25 0.657,0.187 1.218,-0.375 1.125,-0.937 0.844,-1.313 0.375,-1.594 -0.094,-1.593 -0.468,-1.407 -0.844,-0.843 -1.125,-0.282 -0.094,0.094 m -0.656,8.156 0.75,0.188 1.219,-0.281 1.125,-0.938 0.75,-1.406 0.375,-1.594 v -1.594 l -0.563,-1.312 -0.844,-0.844 -1.031,-0.281 h -0.187 m -0.563,8.25 0.656,0.187 1.219,-0.375 1.125,-0.937 0.844,-1.313 0.375,-1.593 -0.094,-1.594 -0.469,-1.313 -0.843,-0.937 -1.125,-0.281 -0.094,0.093 m -0.656,8.25 0.75,0.188 1.218,-0.375 1.125,-0.938 0.75,-1.312 0.375,-1.688 v -1.5 l -0.562,-1.406 -0.844,-0.844 -1.031,-0.281 H 34.57 m -0.562,8.25 0.656,0.188 1.313,-0.282 1.031,-0.937 0.844,-1.406 0.375,-1.594 -0.094,-1.594 -0.469,-1.312 -0.844,-0.844 -1.031,-0.281 h -0.187 m -0.657,8.25 0.75,0.187 1.219,-0.375 1.125,-0.937 0.75,-1.313 0.375,-1.594 v -1.593 l -0.562,-1.313 -0.844,-0.937 -1.031,-0.282 -0.188,0.094 m -0.562,8.156 0.656,0.188 1.312,-0.281 1.032,-0.938 0.843,-1.406 0.375,-1.594 -0.093,-1.594 -0.469,-1.312 -0.844,-0.844 -1.031,-0.281 H 37.57 m -0.562,8.25 0.656,0.187 1.219,-0.375 1.125,-0.843 0.75,-1.407 0.375,-1.593 v -1.594 l -0.469,-1.313 -0.937,-0.937 -1.032,-0.281 -0.187,0.093 m -0.563,8.25 0.75,0.188 1.219,-0.375 1.031,-0.938 0.844,-1.312 0.375,-1.594 -0.094,-1.594 -0.468,-1.406 -0.844,-0.844 -1.031,-0.281 -0.188,0.094 m -0.562,8.156 0.656,0.188 1.219,-0.282 1.125,-0.937 0.75,-1.406 0.468,-1.594 -0.093,-1.594 -0.469,-1.312 -0.844,-0.844 -1.125,-0.281 h -0.187 m -0.563,8.25 0.75,0.187 1.219,-0.375 1.031,-0.937 0.844,-1.313 0.375,-1.594 -0.094,-1.593 -0.469,-1.313 -0.843,-0.937 -1.032,-0.282 -0.187,0.094 m -0.563,8.25 0.657,0.188 1.218,-0.375 1.125,-0.938 0.75,-1.312 0.469,-1.688 -0.094,-1.5 -0.468,-1.406 -0.844,-0.844 -1.125,-0.281 h -0.188 m -0.562,8.25 0.75,0.187 1.219,-0.281 1.031,-0.937 0.844,-1.407 0.375,-1.593 -0.094,-1.594 -0.469,-1.313 -0.844,-0.843 -1.031,-0.282 h -0.187 m -13.313,5.813 0.844,0.094 m -0.844,-0.094 -0.844,0.281 h -0.843 l -0.844,-0.375 -0.656,-0.656 -0.469,-0.938 -0.281,-1.031 v -1.219 l 0.281,-1.125 0.469,-1.125 0.562,-0.843 0.844,-0.657 0.844,-0.281 h 0.843 l 0.75,0.375 0.657,0.656 0.468,0.938 0.282,1.031 v 1.219 l -0.282,1.125 -0.375,1.125 -0.656,0.844 -0.75,0.656 m 0.844,0.094 -0.375,-0.563 m 75,27.469 -0.656,-3.375 -0.469,-3.375 -0.094,-3.469 v -3.562 l 0.094,-1.125 m 1.312,-8.344 0.282,-1.031 0.937,-3.375 1.219,-3.282 1.406,-3.187 1.594,-2.906 1.781,-2.813 1.969,-2.531 2.062,-2.344 2.25,-2.062 2.25,-1.782 2.438,-1.5 2.437,-1.125 2.532,-0.843 2.531,-0.563 2.531,-0.187 2.531,0.093 2.438,0.469 2.437,0.75 2.25,1.125 2.25,1.406 2.063,1.782 1.875,1.968 1.781,2.25 1.594,2.532 1.406,2.718 1.219,2.907 0.937,3.093 0.75,3.282 0.563,3.375 0.281,3.375 v 3.562 l -0.187,3.563 -0.375,3.468 -0.657,3.563 -0.937,3.375 -1.031,3.375 -1.313,3.187 -1.5,3.094 -1.687,2.813 -1.875,2.718 -2.063,2.438 -2.156,2.156 -2.25,1.875 -2.344,1.688 -2.437,1.312 -2.532,1.031 -2.437,0.657 -2.625,0.375 -2.438,0.093 -2.531,-0.281 -2.437,-0.656 -2.344,-0.938 -2.25,-1.312 -2.156,-1.5 -1.969,-1.875 -1.875,-2.156 -1.688,-2.344 -1.5,-2.625 -1.312,-2.813 -1.031,-3.093 -0.844,-3.094 m 0.281,6.375 -0.844,-3.844 -0.468,-3.937 -0.282,-4.032 -0.093,-4.125 0.093,-2.812 m 2.157,-13.406 v -0.094 l 1.125,-3.938 1.312,-3.75 1.594,-3.75 1.687,-3.562 1.969,-3.375 2.063,-3.094 2.343,-3 2.344,-2.625 2.625,-2.437 2.625,-2.157 2.719,-1.875 2.812,-1.593 2.907,-1.219 2.906,-0.938 3,-0.562 2.906,-0.281 2.906,0.093 2.907,0.469 2.812,0.75 2.719,1.031 2.625,1.407 2.531,1.687 2.438,1.969 2.25,2.344 2.062,2.531 1.969,2.812 1.687,3 1.5,3.282 1.313,3.468 1.125,3.657 0.844,3.75 0.656,3.843 0.469,4.032 0.093,4.031 v 4.125 l -0.375,4.031 -0.562,4.125 -0.75,4.031 -1.031,4.032 -1.219,3.843 -1.406,3.75 -1.688,3.657 -1.875,3.468 -1.969,3.282 -2.25,3 -2.343,2.812 -2.438,2.625 -2.625,2.25 -2.719,2.063 -2.812,1.687 -2.813,1.406 -2.906,1.032 -2.906,0.75 -3,0.468 -2.906,0.094 -2.907,-0.281 -2.812,-0.563 -2.813,-0.937 -2.718,-1.219 -2.532,-1.5 -2.531,-1.875 -2.25,-2.156 -2.25,-2.438 -1.969,-2.718 -1.781,-2.907 -1.687,-3.093 -1.407,-3.375 -1.218,-3.563 -0.938,-3.656 M 66.82,-65.43 34.852,-60.648 m 28.968,-5.25 3,0.468 m -3,-0.468 -31.968,4.781 m 0,0 3,0.469 M 63.914,-276.086 63.82,-65.898 m 3,0.468 0.094,-277.687 m 7.125,-8.906 -1.406,-0.094 -1.313,0.375 -1.218,0.75 -1.032,1.125 -0.937,1.312 -0.656,1.688 -0.375,1.781 -0.188,1.969 m 7.125,-8.906 10.688,1.593 m 0,0 v -4.125 m 0,0 -20.719,-3.187 m 0,0 v 23.344 m 1.125,0.187 -1.125,-0.187 m 1.125,58.5 v -58.313 m 0,58.313 -1.219,-0.188 m -31.969,4.781 31.969,-4.781 m -31.969,4.781 -0.093,181.875 m 0,8.438 v 19.875 m 1.312,-268.406 31.969,-4.688 m -12.375,27.656 v 13.313 m 0,0 -7.219,1.125 m -12.375,20.625 v -58.031 m -1.125,-0.188 31.969,-4.687 m -30.844,4.875 -1.125,-0.188 m 31.969,-28.031 -31.969,4.687 m 0,0 v 23.344 m 12.375,37.406 7.125,-1.125 m 0,0 0.094,-13.312 m -7.219,1.031 7.219,-1.031 m -7.219,14.437 v -13.406 m 8.344,12.469 -1.219,-0.188 m 1.219,-13.125 -1.125,-0.187 m -6.094,14.625 -1.125,-0.188 m 40.313,-58.125 -16.875,2.532 m 3.281,-3.75 2.906,-0.375" /></g><text
                     id="text58"
                     style="font-variant:normal;font-weight:normal;font-size:11.25px;font-family:Verdana;-inkscape-font-specification:Verdana;writing-mode:lr-tb;fill:#fbfbfb;fill-opacity:0.93252097;fill-rule:nonzero;stroke:none"
                     transform="translate(183.536,36.2073)"><tspan
                       id="tspan56"
                       y="0"
                       x="0">f</tspan></text>
<text
                     id="text62"
                     style="font-variant:normal;font-weight:normal;font-size:11.25px;font-family:Verdana;-inkscape-font-specification:Verdana;writing-mode:lr-tb;fill:#fbfbfb;fill-opacity:0.93252097;fill-rule:nonzero;stroke:none"
                     transform="translate(187.491,36.2073)"><tspan
                       id="tspan60"
                       y="0"
                       x="0">f</tspan></text>
<text
                     id="text66"
                     style="font-variant:normal;font-weight:normal;font-size:11.25px;font-family:Verdana;-inkscape-font-specification:Verdana;writing-mode:lr-tb;fill:#fbfbfb;fill-opacity:0.93252097;fill-rule:nonzero;stroke:none"
                     transform="translate(191.446,36.2073)"><tspan
                       id="tspan64"
                       y="0"
                       x="0">d</tspan></text>
<text
                     id="text70"
                     style="font-variant:normal;font-weight:normal;font-size:11.25px;font-family:Verdana;-inkscape-font-specification:Verdana;writing-mode:lr-tb;fill:#fbfbfb;fill-opacity:0.93252097;fill-rule:nonzero;stroke:none"
                     transform="translate(198.455,36.2073)"><tspan
                       id="tspan68"
                       y="0"
                       x="0">f</tspan></text>
<text
                     id="text74"
                     style="font-variant:normal;font-weight:normal;font-size:11.25px;font-family:Verdana;-inkscape-font-specification:Verdana;writing-mode:lr-tb;fill:#fbfbfb;fill-opacity:0.93252097;fill-rule:nonzero;stroke:none"
                     transform="translate(202.41,36.2073)"><tspan
                       id="tspan72"
                       y="0"
                       x="0">d</tspan></text>
<text
                     id="text78"
                     style="font-variant:normal;font-weight:normal;font-size:11.25px;font-family:Verdana;-inkscape-font-specification:Verdana;writing-mode:lr-tb;fill:#fbfbfb;fill-opacity:0.93252097;fill-rule:nonzero;stroke:none"
                     transform="translate(209.42,36.2073)"><tspan
                       id="tspan76"
                       y="0"
                       x="0">f</tspan></text>
</g></g></g></g></g></g></g></g></svg>